<?xml version="1.0" encoding="utf-8"?>
<!-- Svg Vector Icons : http://www.onlinewebfonts.com/icon -->
<!DOCTYPE svg PUBLIC "-//W3C//DTD SVG 1.1//EN" "http://www.w3.org/Graphics/SVG/1.1/DTD/svg11.dtd">
<svg version="1.1" xmlns="http://www.w3.org/2000/svg" xmlns:xlink="http://www.w3.org/1999/xlink" x="0px" y="0px" viewBox="0 0 1000 1000" enable-background="new 0 0 1000 1000" xml:space="preserve">
<metadata> Svg Vector Icons : http://www.onlinewebfonts.com/icon </metadata>
<g><path d="M524.9,81.4c-3.3,0.2-6.7,0.9-9.9,2L35.6,249c-14.8,5.1-25.5,20.5-25.6,36.6v607.3c0.5,34.8,73.7,33.8,74.5,0V313.2l441.1-152.1l389.8,151.5v580.4c0.5,32.3,76.2,33.8,74.6,0V285.6c0-15.7-10.2-30.8-24.3-36.2L539.5,83.7C534.9,82,529.9,81.1,524.9,81.4L524.9,81.4L524.9,81.4z M363.5,466.4c-6.5,1.1-11.7,6.4-11.7,12.1v49c0,6.4,6.9,12.1,14.4,12.1h113.1c7.4-0.1,14.3-5.8,14.4-12.2v-49c0-6.4-6.9-12.1-14.3-12.1H366.2C365.3,466.3,364.4,466.3,363.5,466.4L363.5,466.4L363.5,466.4z M547.2,466.4c-6.4,1.1-11.4,6.4-11.3,12.1v49c0,6.4,6.9,12.1,14.3,12.1h112.9c7.4,0.1,14.5-5.6,14.6-12.1v-49c-0.1-6.4-7.2-12.2-14.6-12.1H550.2C549.3,466.3,548.1,466.3,547.2,466.4L547.2,466.4L547.2,466.4z M181.1,583.4c-6.9,0.5-13,6.4-13,12.5v48.6c0,6.4,6.7,12.5,14,12.5h113.5c7.4,0,13.9-6.1,14-12.5v-48.6c-0.1-6.4-6.6-12.5-14-12.5H182.1H181.1L181.1,583.4L181.1,583.4z M364.8,583.4c-7,0.5-12.9,6.4-13,12.5v48.6c0,6.4,6.9,12.5,14.4,12.5h113.1c7.4,0,14.3-6.1,14.3-12.5v-48.6c0-6.4-6.9-12.5-14.3-12.5H366.2H364.8L364.8,583.4L364.8,583.4z M548.6,583.4c-6.9,0.7-12.7,6.5-12.7,12.5v48.6c0,6.4,6.9,12.5,14.3,12.5h112.9c7.4,0.1,14.5-6,14.6-12.5v-48.6c-0.1-6.5-7.2-12.6-14.6-12.5H550.2H548.6L548.6,583.4L548.6,583.4z M179.4,701.1c-6.4,1.1-11.4,6.4-11.3,12v49c0,6.5,6.7,12.2,14,12.2h113.5c7.4,0,13.9-5.7,14-12.2v-49c-0.1-6.3-6.6-12-14-12H182.1C181.2,701,180.3,701,179.4,701.1L179.4,701.1z M363.5,701.1c-6.5,1.1-11.7,6.4-11.7,12v49c0,6.5,6.9,12.2,14.4,12.2h113.1c7.4,0,14.3-5.7,14.3-12.2v-49c0-6.3-6.9-12-14.3-12H366.2C365.3,701,364.4,701,363.5,701.1L363.5,701.1L363.5,701.1z M547.2,701.1c-6.4,1.1-11.4,6.4-11.3,12v49c0,6.5,6.9,12.2,14.3,12.2h112.9c7.4,0.1,14.5-5.6,14.6-12.2v-49c-0.1-6.4-7.2-12.2-14.6-12H550.2C549.3,701,548.1,701,547.2,701.1L547.2,701.1L547.2,701.1z M730.9,701.1c-6.3,1.2-11.1,6.5-11,12v49c0.1,6.5,6.7,12.2,14.1,12.2h113.1c7.3,0,13.9-5.7,14.1-12.2v-49c-0.1-6.3-6.7-12-14.1-12H734C732.9,701,732,701,730.9,701.1L730.9,701.1z M181.1,818c-6.9,0.5-13,6.4-13,12.5v48.7c0,6.4,6.7,12.4,14,12.4h113.5c7.4,0,13.9-6,14-12.4v-48.7c-0.1-6.4-6.6-12.5-14-12.5H182.1H181.1L181.1,818L181.1,818z M364.8,818c-7,0.5-12.9,6.4-13,12.5v48.7c0,6.4,6.9,12.4,14.4,12.4h113.1c7.4,0,14.3-6,14.3-12.4v-48.7c0-6.4-6.9-12.5-14.3-12.5H366.2H364.8L364.8,818L364.8,818z M548.6,818c-6.9,0.7-12.7,6.5-12.7,12.5v48.7c0,6.4,6.9,12.4,14.3,12.4h112.9c7.4,0.1,14.5-6,14.6-12.4v-48.7c-0.1-6.4-7.2-12.6-14.6-12.5H550.2H548.6L548.6,818L548.6,818z M732.7,818c-6.8,0.7-12.7,6.5-12.7,12.5v48.7c0.1,6.4,6.7,12.4,14.1,12.4h113.1c7.3,0,13.9-6,14-12.4v-48.7c-0.1-6.4-6.7-12.5-14-12.5H734.1H732.7L732.7,818L732.7,818z"/></g>
</svg>